<svg height="481.8" width="481.8" xmlns="http://www.w3.org/2000/svg"><path d="m453.6 405.7-155.3-155.2c-1.4-1.5-3-2.8-4.6-4l27.5-29 4-4.4c36.5 14 79.3 6 108.7-23.2 21.3-21.4 32-51 29.4-81.2-.2-3.5-2.5-6.4-5.7-7.6-3.3-1.2-7-.4-9.3 2l-49.7 49.9-50.3-13-14.3-51.7 49.7-49.8c2.5-2.4 3.3-6 2-9.3-1-3-4-5.3-7.5-5.6-30.2-2.7-59.8 8-81.2 29.5-29.3 29.3-37 72-23.3 108.6l-4.5 4-40.4 39-74.4-74.4c-1-1-2-1.8-3-2.6 1-1.5 1.8-3 2.6-4.7 15.7 3 44.4-27.6 68.8-52l-71-71c-31.8 31.8-55 53-52 68.8-7.2 3.5-13.7 7.8-18.3 12.4l-10 10c-6.5 6.5-10.4 14.6-11.8 23l-3 3.6-3.6 4.7-.4.7-3.4 4.7c-2 2.7-4 5.8-5.8 8.7l-2 3.3-.3.6-1.4 2.8c-1.8 3.4-3.7 7-5.3 10.8l-.3.6c-2 4.5-3.8 9.2-5.2 14.2l-.7 2c-.4 2-1 3.6-1.5 5.7l-1.4 7c-1 4-1.2 8.3-1.5 12l-.2 2.5c-.5 4-.4 7.6-.3 10.8 0 1 0 2 .2 3.5v1.8c0 1.4 0 3 .4 4.8l.8 5.6.5 3c.3 2.4.6 4.7 1.3 7l3.4 12.4c1 4 4.7 6.5 8.6 6.2 2.2 0 4-1 5.5-2.5 1.3-1.2 2.2-3 2.5-4.7l1.8-13 1-4 1-3 1.3-5c0-.5.5-1.2.7-1.8l.8-1.8c.6-1 1-2 1.4-3 .8-2 1.6-4 2.8-6l1.5-2.6c1.2-2.2 2.4-4.3 3.8-6l.3-.4 3-4.3 2.2-2.3 1.6-1.8c2-2.4 4-4.3 6.2-6.3l1-1 5.4-4.3c.8-.5 1.6-1 2.3-1.7l2.8-1.8c1.8-1.3 3.2-2.3 5-3.2l3.7-2 3.8-2c1.3-.7 2.6-1.2 3.8-1.7l2-.8 2-.7 2.5-.8 1-.2c1.2 1.8 2.5 3.5 4 5l73.6 73.6-157.3 150.9v.2c-19.7 19.5-22.8 48-3.3 67.7 19.5 19.5 46.3 14.5 65.8-5 .2 0 .3-.2.4-.3l138.4-145.8 2.5 3 155.3 155c17.4 17.5 45.6 17.5 63 0 17.4-17.3 17.4-45.5 0-63zm-379.6 35c-7.3 7-19 7-26.2 0-7.2-7.3-7.2-19 0-26.2s19-7.2 26 0c7.3 7.2 7.3 19 0 26z" fill="#706cf5"/></svg>