<svg xmlns="http://www.w3.org/2000/svg" width="1024" height="1024"><path fill="#706CF5" d="M755.8 575c-14-9.8-28.6-16.4-43.5-19.8-9-1.7-18-2.3-27.6-1.8-9 .5-17.6 1.7-25.7 3.5-6 1.6-12.2 3.8-18.3 6.5-18.2 8-34 18.2-46.8 30.4-12.3 12.8-22.4 28.5-30.5 46.7-2.7 6-5 12.2-6.6 18.3-2 8-3 16.7-3.6 25.7-.5 9.5 0 18.7 1.8 27.6 3.4 15 10 29.5 20 43.4 3.8 5.5 8 10.4 12.5 15 20 20 45.8 30.6 75.4 34 9 1 18.3 1.7 26.7 4.5 5 1.7 9 4 12 7 6.7 6.6 7.7 16 2.5 27.3-3 6.8-7.7 13.4-13 18.8l-2.7 3c-4 3.8-6.4 6.3-7 7-3.2 3-6.2 6-9 9l-3 3-31.7 31.6-68.4 68.3-22.5 22.5c-3.6 3.4-7.2 6.3-11 8.8-1.7 1.2-3.4 2.2-5 3-19.7 10-41.5 6-59.3-11.8l-16-15.8c-30-30.3-60.3-60.5-90.6-90.7l-25.6-25.6c-6-6-12.7-12-19.6-17-5.7-4.4-11.6-7.6-17.4-9.8-21.2-7.4-41.4-2-54.7 13-3.8 5-7 10.6-9.4 17-3.4 9.3-4.6 19.6-6 29.4-4.8 37.6-25.7 68.5-56 82.7-7.4 3.7-15.4 6.4-23.8 8-8 1.3-16 1.6-23.8 1-26.6-1.4-49.5-13.2-68.5-32.7l-2.5-2.5c-19.5-19-31.3-42-32.6-68.5-.6-8-.3-16 1-23.8 1.6-8.4 4.3-16.4 8-24 14-30 45-51 82.6-56 9.8-1.2 20-2.4 29.3-5.8 7-2.6 13-6 18-10.2 14.4-13.2 19.5-32.6 12.7-52.4-2.8-7.2-6-13-10.3-18.8-5.2-7-11-13.4-17-19.6L123.7 659 43 578.2l-10-10L17.7 553C-.6 534.4-4.6 512.6 5.3 493l3-5c2.6-3.8 5.5-7.4 9-10.8l22.4-22.5 68.4-68.4c10.6-10.6 21-21.2 31.7-31.7l3-3 9-8.8 7-7.3 3-2.7c5.4-5.3 12-10 18.8-13 11.2-5 20.7-4.2 27.3 2.5 3 3 5.3 7 7 12 2.8 8.5 3.4 17.7 4.5 26.6 3.4 29.5 14 55.2 34 75.3 4.6 4.5 9.5 8.7 15 12.6 14 9.8 28.5 16.5 43.4 19.8 9 1.7 18 2.3 27.6 1.8 9-.5 17.6-1.7 25.7-3.5 6-1.6 12.2-3.8 18.3-6.5 18.2-8 34-18 46.8-30.3 12.4-13 22.5-28.7 30.5-46.8 2.7-6 5-12.3 6.6-18.4 2-8 3-16.7 3.6-25.7.5-9.5 0-18.7-1.8-27.5-3.4-15-10-29.5-20-43.5-3.8-5.4-8-10.4-12.5-15-20-20-45.8-30.6-75.4-34-9-1-18.2-1.7-26.7-4.5-5-1.7-9-4-12-7-6.7-6.6-7.7-16-2.5-27.2 3-7 7.7-13.5 13-19l2.7-2.7 7-7.2c3.2-3 6.2-6 9-9l3-3 31.7-31.7L454.6 40 477 17.3c3.6-3.5 7.2-6.4 11-8.8 1.7-1.2 3.4-2.3 5-3.2 19.7-10 41.5-6 59.3 12l16 15.7c30 30.3 60.4 60.6 90.6 90.8l25.6 25.6c6 6 12.7 11.8 19.6 17 5.7 4.4 11.6 7.6 17.4 9.8 21.2 7.3 41.5 2 54.7-13.3 3.8-5 7-10.6 9.4-17 3.4-9.3 4.6-19.5 6-29.4 4.8-37.5 25.7-68.4 56-82.7 7.4-3.7 15.4-6.3 23.8-7.8 8-1.4 16-1.7 23.8-1 26.6 1.3 49.5 13 68.5 32.5l2.6 2.5c19.4 19 31.2 42 32.5 68.5.6 8 .3 16-1 24-1.6 8.3-4.2 16.3-8 23.8-14 30-45 51-82.5 56-10 1.2-20 2.4-29.4 5.8-6.8 2.6-13 6-18 10.3-14.4 13-19.5 32.6-12.7 52.3 2.8 7.2 6 13 10.3 18.8 5.2 7 11 13.5 17 19.6l25.6 25.6 90.8 90.8 15.3 15.3c18.4 18.5 22.3 40.3 12.4 60l-3 5c-2.5 3.8-5.5 7.4-9 11l-22.4 22.4-68.4 68.4-31.7 31.6-3 3-9 9-7 7-3 3c-5.4 5-12 9.7-18.8 12.8-11.2 5.2-20.7 4.2-27.3-2.5-3-3-5.3-7-7-12-2.8-8.5-3.4-17.7-4.5-26.6-3.4-29.5-14-55.2-34-75.3-4.6-4.5-9.5-8.7-15-12.6z"/></svg>